<svg version="1.1" id="Layer_1" xmlns="http://www.w3.org/2000/svg" xmlns:xlink="http://www.w3.org/1999/xlink" x="0px" y="0px"
	 width="100%" viewBox="0 0 2152 1070" enable-background="new 0 0 2152 1070" xml:space="preserve">
<path fill="#1D2A32" opacity="1.000000" stroke="none" 
	d="
M1557.000000,1071.000000 
	C1038.000122,1071.000000 519.500305,1071.000000 1.000348,1071.000000 
	C1.000232,714.333618 1.000232,357.667175 1.000116,1.000587 
	C718.332825,1.000391 1435.665649,1.000391 2152.999023,1.000196 
	C2152.999268,357.666107 2152.999268,714.332214 2152.999512,1070.999146 
	C1954.500000,1071.000000 1756.000000,1071.000000 1557.000000,1071.000000 
M1862.328125,903.359863 
	C1865.063232,907.035950 1866.768433,904.167725 1868.590332,902.346191 
	C1917.148071,853.799255 1965.700439,805.246948 2014.245972,756.687805 
	C2015.280396,755.653076 2016.223755,754.527466 2017.595215,753.020447 
	C1936.304565,671.730347 1855.175293,590.601746 1773.168213,508.595306 
	C1844.688843,437.074890 1915.912842,365.851105 1986.574951,295.189240 
	C1936.024048,244.639862 1885.401123,194.018417 1834.053955,142.672714 
	C1763.221924,213.506805 1691.997437,284.733276 1620.290527,356.442322 
	C1549.060303,285.211090 1477.915161,214.064926 1407.488770,143.637497 
	C1356.714844,194.410873 1306.000000,245.125275 1254.954834,296.169922 
	C1325.586792,366.801270 1396.736084,437.949982 1468.347656,509.560913 
	C1387.013672,590.893677 1305.873291,672.032776 1225.628540,752.276306 
	C1276.565674,803.213684 1327.282715,853.930847 1378.750366,905.398682 
	C1459.200928,824.945984 1540.226196,743.918579 1621.562378,662.580200 
	C1701.589600,742.611511 1781.700562,822.726562 1862.328125,903.359863 
M952.012024,610.471191 
	C953.992004,589.550598 956.696167,568.664734 957.699585,547.697388 
	C958.377441,533.533081 957.141113,519.211365 955.885132,505.037720 
	C954.454956,488.898804 953.053467,472.647217 949.906555,456.788483 
	C930.020569,356.576263 881.066162,273.148163 802.786011,207.523865 
	C743.772217,158.051041 676.163818,126.577095 599.900818,113.689354 
	C577.803040,109.955040 555.654663,108.054550 533.406372,107.250504 
	C519.214905,106.737633 504.913696,107.933372 490.722931,109.104523 
	C476.411407,110.285637 462.007263,111.508980 447.933136,114.217598 
	C339.393951,135.106339 250.774704,189.032562 183.090286,276.434753 
	C136.902191,336.078278 109.073051,403.799866 98.257423,478.451141 
	C96.459267,490.862335 94.553520,503.357239 94.206245,515.855347 
	C93.722244,533.273621 93.897125,550.788757 95.202133,568.156311 
	C96.523048,585.735657 98.584175,603.380127 102.011635,620.660767 
	C123.270424,727.843628 177.201523,815.194092 263.587799,882.012573 
	C322.402802,927.505066 389.065033,955.351135 462.683319,966.217651 
	C476.076111,968.194580 489.548401,970.305237 503.039185,970.777222 
	C520.118347,971.374817 537.327637,971.236572 554.345886,969.808411 
	C573.930786,968.164917 593.573181,965.796143 612.837524,961.966187 
	C769.123047,930.895752 896.986145,812.682007 940.907959,658.862244 
	C945.366333,643.248535 948.238892,627.181946 952.012024,610.471191 
z"/>
<path fill="#62BEBC" opacity="1.000000" stroke="none" 
	d="
M1862.069824,903.100708 
	C1781.700562,822.726562 1701.589600,742.611511 1621.562378,662.580200 
	C1540.226196,743.918579 1459.200928,824.945984 1378.750366,905.398682 
	C1327.282715,853.930847 1276.565674,803.213684 1225.628540,752.276306 
	C1305.873291,672.032776 1387.013672,590.893677 1468.347656,509.560913 
	C1396.736084,437.949982 1325.586792,366.801270 1254.954834,296.169922 
	C1306.000000,245.125275 1356.714844,194.410873 1407.488770,143.637497 
	C1477.915161,214.064926 1549.060303,285.211090 1620.290527,356.442322 
	C1691.997437,284.733276 1763.221924,213.506805 1834.053955,142.672714 
	C1885.401123,194.018417 1936.024048,244.639862 1986.574951,295.189240 
	C1915.912842,365.851105 1844.688843,437.074890 1773.168213,508.595306 
	C1855.175293,590.601746 1936.304565,671.730347 2017.595215,753.020447 
	C2016.223755,754.527466 2015.280396,755.653076 2014.245972,756.687805 
	C1965.700439,805.246948 1917.148071,853.799255 1868.590332,902.346191 
	C1866.768433,904.167725 1865.063232,907.035950 1862.069824,903.100708 
z"/>
<path fill="#E9B552" opacity="1.000000" stroke="none" 
	d="
M951.929688,610.898376 
	C948.238892,627.181946 945.366333,643.248535 940.907959,658.862244 
	C896.986145,812.682007 769.123047,930.895752 612.837524,961.966187 
	C593.573181,965.796143 573.930786,968.164917 554.345886,969.808411 
	C537.327637,971.236572 520.118347,971.374817 503.039185,970.777222 
	C489.548401,970.305237 476.076111,968.194580 462.683319,966.217651 
	C389.065033,955.351135 322.402802,927.505066 263.587799,882.012573 
	C177.201523,815.194092 123.270424,727.843628 102.011635,620.660767 
	C98.584175,603.380127 96.523048,585.735657 95.202133,568.156311 
	C93.897125,550.788757 93.722244,533.273621 94.206245,515.855347 
	C94.553520,503.357239 96.459267,490.862335 98.257423,478.451141 
	C109.073051,403.799866 136.902191,336.078278 183.090286,276.434753 
	C250.774704,189.032562 339.393951,135.106339 447.933136,114.217598 
	C462.007263,111.508980 476.411407,110.285637 490.722931,109.104523 
	C504.913696,107.933372 519.214905,106.737633 533.406372,107.250504 
	C555.654663,108.054550 577.803040,109.955040 599.900818,113.689354 
	C676.163818,126.577095 743.772217,158.051041 802.786011,207.523865 
	C881.066162,273.148163 930.020569,356.576263 949.906555,456.788483 
	C953.053467,472.647217 954.454956,488.898804 955.885132,505.037720 
	C957.141113,519.211365 958.377441,533.533081 957.699585,547.697388 
	C956.696167,568.664734 953.992004,589.550598 951.929688,610.898376 
M580.004517,201.626282 
	C564.498230,200.099350 549.015869,198.201508 533.475830,197.196091 
	C525.243591,196.663467 516.863220,197.227188 508.633514,198.092819 
	C490.521484,199.997955 472.157593,201.004150 454.434021,204.852646 
	C369.723755,223.246689 301.405670,267.643188 249.895081,337.342255 
	C209.902313,391.456512 188.947952,452.764313 184.206223,519.607178 
	C183.152817,534.456848 183.893158,549.552429 185.175964,564.416687 
	C186.533447,580.146240 188.585861,595.940186 191.958725,611.350586 
	C209.101669,689.675659 248.930527,754.361328 311.101837,804.932434 
	C368.085114,851.283508 433.936493,875.629211 506.909241,880.806824 
	C521.267151,881.825500 535.885437,881.266785 550.229370,879.860718 
	C568.135803,878.105530 586.163086,875.920288 603.649414,871.830688 
	C680.092285,853.952759 743.299255,814.281860 792.517090,753.156067 
	C841.104736,692.813049 865.653198,623.362122 867.887329,546.008179 
	C868.111755,538.238708 867.658875,530.407959 866.930115,522.661194 
	C865.378906,506.171539 864.995422,489.371368 861.412964,473.305084 
	C832.658081,344.349731 755.783386,257.554504 631.046936,213.819458 
	C614.901306,208.158463 597.592896,205.813797 580.004517,201.626282 
z"/>
<path fill="#1D2A32" opacity="1.000000" stroke="none" 
	d="
M580.413818,201.779633 
	C597.592896,205.813797 614.901306,208.158463 631.046936,213.819458 
	C755.783386,257.554504 832.658081,344.349731 861.412964,473.305084 
	C864.995422,489.371368 865.378906,506.171539 866.930115,522.661194 
	C867.658875,530.407959 868.111755,538.238708 867.887329,546.008179 
	C865.653198,623.362122 841.104736,692.813049 792.517090,753.156067 
	C743.299255,814.281860 680.092285,853.952759 603.649414,871.830688 
	C586.163086,875.920288 568.135803,878.105530 550.229370,879.860718 
	C535.885437,881.266785 521.267151,881.825500 506.909241,880.806824 
	C433.936493,875.629211 368.085114,851.283508 311.101837,804.932434 
	C248.930527,754.361328 209.101669,689.675659 191.958725,611.350586 
	C188.585861,595.940186 186.533447,580.146240 185.175964,564.416687 
	C183.893158,549.552429 183.152817,534.456848 184.206223,519.607178 
	C188.947952,452.764313 209.902313,391.456512 249.895081,337.342255 
	C301.405670,267.643188 369.723755,223.246689 454.434021,204.852646 
	C472.157593,201.004150 490.521484,199.997955 508.633514,198.092819 
	C516.863220,197.227188 525.243591,196.663467 533.475830,197.196091 
	C549.015869,198.201508 564.498230,200.099350 580.413818,201.779633 
z"/>
</svg>